<svg id="visual" viewBox="0 0 1920 1080" width="1920" height="1080" xmlns="http://www.w3.org/2000/svg" xmlns:xlink="http://www.w3.org/1999/xlink" version="1.1"><path d="M0 820L29.2 825C58.3 830 116.7 840 174.8 861.5C233 883 291 916 349.2 938.3C407.3 960.7 465.7 972.3 523.8 965.3C582 958.3 640 932.7 698.2 938.3C756.3 944 814.7 981 872.8 995.8C931 1010.7 989 1003.3 1047.2 972.8C1105.3 942.3 1163.7 888.7 1221.8 865.5C1280 842.3 1338 849.7 1396.2 844.7C1454.3 839.7 1512.7 822.3 1570.8 833C1629 843.7 1687 882.3 1745.2 903.8C1803.3 925.3 1861.7 929.7 1890.8 931.8L1920 934L1920 1081L1890.8 1081C1861.7 1081 1803.3 1081 1745.2 1081C1687 1081 1629 1081 1570.8 1081C1512.7 1081 1454.3 1081 1396.2 1081C1338 1081 1280 1081 1221.8 1081C1163.7 1081 1105.3 1081 1047.2 1081C989 1081 931 1081 872.8 1081C814.7 1081 756.3 1081 698.2 1081C640 1081 582 1081 523.8 1081C465.7 1081 407.3 1081 349.2 1081C291 1081 233 1081 174.8 1081C116.7 1081 58.3 1081 29.2 1081L0 1081Z" fill="#ffcc33"></path><path d="M0 952L29.2 965.8C58.3 979.7 116.7 1007.3 174.8 1020.3C233 1033.3 291 1031.7 349.2 1006C407.3 980.3 465.7 930.7 523.8 929.3C582 928 640 975 698.2 991C756.3 1007 814.7 992 872.8 983.7C931 975.3 989 973.7 1047.2 964.5C1105.3 955.3 1163.7 938.7 1221.8 936.5C1280 934.3 1338 946.7 1396.2 965.2C1454.3 983.7 1512.7 1008.3 1570.8 994.3C1629 980.3 1687 927.7 1745.2 912.8C1803.3 898 1861.7 921 1890.8 932.5L1920 944L1920 1081L1890.8 1081C1861.7 1081 1803.3 1081 1745.2 1081C1687 1081 1629 1081 1570.8 1081C1512.7 1081 1454.3 1081 1396.2 1081C1338 1081 1280 1081 1221.8 1081C1163.7 1081 1105.3 1081 1047.2 1081C989 1081 931 1081 872.8 1081C814.7 1081 756.3 1081 698.2 1081C640 1081 582 1081 523.8 1081C465.7 1081 407.3 1081 349.2 1081C291 1081 233 1081 174.8 1081C116.7 1081 58.3 1081 29.2 1081L0 1081Z" fill="#ffe59f"></path><path d="M0 1039L29.2 1038.8C58.3 1038.7 116.7 1038.3 174.8 1029C233 1019.7 291 1001.3 349.2 1003.5C407.3 1005.7 465.7 1028.3 523.8 1035C582 1041.7 640 1032.3 698.2 1026.7C756.3 1021 814.7 1019 872.8 1022.5C931 1026 989 1035 1047.2 1033.5C1105.3 1032 1163.7 1020 1221.8 1011.2C1280 1002.3 1338 996.7 1396.2 1002.8C1454.3 1009 1512.7 1027 1570.8 1034.7C1629 1042.3 1687 1039.7 1745.2 1038C1803.3 1036.3 1861.7 1035.7 1890.8 1035.3L1920 1035L1920 1081L1890.8 1081C1861.7 1081 1803.3 1081 1745.2 1081C1687 1081 1629 1081 1570.8 1081C1512.7 1081 1454.3 1081 1396.2 1081C1338 1081 1280 1081 1221.8 1081C1163.7 1081 1105.3 1081 1047.2 1081C989 1081 931 1081 872.8 1081C814.7 1081 756.3 1081 698.2 1081C640 1081 582 1081 523.8 1081C465.7 1081 407.3 1081 349.2 1081C291 1081 233 1081 174.8 1081C116.7 1081 58.3 1081 29.2 1081L0 1081Z" fill="#ffffff"></path></svg>